<svg xmlns="http://www.w3.org/2000/svg" xmlns:xlink="http://www.w3.org/1999/xlink" width="500" zoomAndPan="magnify" viewBox="0 0 375 374.999991" height="500" preserveAspectRatio="xMidYMid meet" version="1.0"><defs><clipPath id="5f6ad96e75"><path d="M 73 87.023438 L 301.75 87.023438 L 301.75 205.523438 L 73 205.523438 Z M 73 87.023438 " clip-rule="nonzero"/></clipPath></defs><g clip-path="url(#5f6ad96e75)"><path fill="#000000" d="M 187.5 119.3125 C 167.257812 119.3125 150.839844 135.722656 150.839844 155.964844 C 150.839844 176.203125 167.257812 192.617188 187.5 192.617188 C 207.742188 192.617188 224.15625 176.203125 224.15625 155.964844 C 224.15625 135.722656 207.746094 119.3125 187.5 119.3125 Z M 211.351562 122.957031 L 212.386719 121.921875 L 213.777344 120.527344 L 222.738281 111.574219 C 222.46875 110.957031 222.238281 110.328125 222.042969 109.6875 L 214.726562 117.007812 L 212.65625 119.078125 L 213.414062 116.253906 L 213.894531 114.453125 C 209.082031 111.382812 203.769531 109.179688 198.195312 107.941406 L 194.53125 114.292969 L 180.472656 114.292969 L 176.808594 107.941406 C 171.234375 109.179688 165.925781 111.382812 161.109375 114.453125 L 161.59375 116.257812 L 162.351562 119.082031 L 160.277344 117.011719 L 152.957031 109.691406 C 152.765625 110.328125 152.53125 110.957031 152.265625 111.574219 L 162.613281 121.921875 L 163.648438 122.960938 L 164.636719 121.972656 L 162.804688 115.125 C 166.925781 112.628906 171.402344 110.769531 176.085938 109.621094 L 179.628906 115.761719 L 195.375 115.761719 L 198.917969 109.621094 C 203.597656 110.769531 208.078125 112.628906 212.195312 115.125 L 210.363281 121.972656 L 211.351562 122.960938 Z M 162.609375 190.007812 L 161.21875 191.402344 L 152.265625 200.351562 C 152.535156 200.96875 152.757812 201.597656 152.953125 202.238281 L 162.34375 192.847656 L 161.589844 195.671875 L 161.105469 197.480469 C 165.925781 200.542969 171.230469 202.75 176.804688 203.984375 L 180.472656 197.636719 L 194.527344 197.636719 L 198.195312 203.992188 C 203.769531 202.753906 209.078125 200.546875 213.890625 197.480469 L 213.410156 195.675781 L 212.65625 192.847656 L 214.722656 194.917969 L 222.042969 202.238281 C 222.234375 201.597656 222.460938 200.972656 222.730469 200.351562 L 213.777344 191.402344 L 212.386719 190.007812 L 211.351562 188.96875 L 210.359375 189.957031 L 212.191406 196.804688 C 208.074219 199.300781 203.597656 201.15625 198.917969 202.308594 L 195.371094 196.167969 L 179.625 196.167969 L 176.082031 202.304688 C 171.398438 201.15625 166.921875 199.300781 162.800781 196.804688 L 164.636719 189.957031 L 163.644531 188.972656 Z M 154.492188 179.816406 L 153.457031 180.847656 L 152.0625 182.246094 L 143.113281 191.195312 C 142.492188 190.929688 141.867188 190.699219 141.226562 190.507812 L 148.546875 183.1875 L 150.617188 181.113281 L 147.792969 181.875 L 145.984375 182.355469 C 142.914062 177.542969 140.714844 172.234375 139.476562 166.65625 L 145.828125 162.988281 L 145.828125 148.9375 L 139.476562 145.269531 C 140.714844 139.695312 142.914062 134.382812 145.988281 129.570312 L 147.789062 130.054688 L 150.613281 130.808594 L 141.222656 121.417969 C 141.859375 121.226562 142.488281 120.996094 143.105469 120.730469 L 152.058594 129.683594 L 153.457031 131.078125 L 154.492188 132.113281 L 153.503906 133.101562 L 146.65625 131.269531 C 144.160156 135.390625 142.296875 139.867188 141.148438 144.546875 L 147.292969 148.09375 L 147.292969 163.839844 L 141.148438 167.382812 C 142.296875 172.066406 144.15625 176.542969 146.65625 180.667969 L 153.503906 178.832031 L 154.492188 179.820312 Z M 119.03125 203.269531 C 119.046875 203.207031 119.058594 203.148438 119.078125 203.09375 C 119.058594 203.148438 119.042969 203.207031 119.03125 203.269531 Z M 118.992188 203.449219 C 119.003906 203.390625 119.019531 203.332031 119.03125 203.273438 C 119.019531 203.332031 119.003906 203.390625 118.992188 203.449219 Z M 118.953125 203.628906 C 118.964844 203.570312 118.976562 203.511719 118.992188 203.453125 C 118.976562 203.511719 118.964844 203.570312 118.953125 203.628906 Z M 118.910156 203.808594 C 118.925781 203.75 118.941406 203.695312 118.949219 203.636719 C 118.941406 203.695312 118.925781 203.75 118.910156 203.808594 Z M 118.882812 203.992188 C 118.890625 203.933594 118.902344 203.875 118.910156 203.816406 C 118.902344 203.875 118.890625 203.933594 118.882812 203.992188 Z M 118.84375 204.175781 C 118.855469 204.117188 118.867188 204.054688 118.878906 204 C 118.867188 204.054688 118.859375 204.117188 118.84375 204.175781 Z M 118.8125 204.351562 C 118.820312 204.296875 118.835938 204.238281 118.84375 204.179688 C 118.835938 204.238281 118.820312 204.296875 118.8125 204.351562 Z M 118.785156 204.539062 C 118.792969 204.480469 118.800781 204.421875 118.8125 204.363281 C 118.800781 204.421875 118.792969 204.480469 118.785156 204.539062 Z M 118.753906 204.71875 C 118.765625 204.660156 118.773438 204.601562 118.78125 204.546875 C 118.773438 204.601562 118.765625 204.660156 118.753906 204.71875 Z M 118.726562 204.902344 C 118.738281 204.847656 118.746094 204.789062 118.753906 204.730469 C 118.746094 204.789062 118.742188 204.847656 118.726562 204.902344 Z M 118.707031 205.089844 C 118.710938 205.027344 118.71875 204.972656 118.726562 204.914062 C 118.71875 204.972656 118.710938 205.027344 118.707031 205.089844 Z M 118.683594 205.269531 C 118.683594 205.210938 118.695312 205.152344 118.707031 205.09375 C 118.699219 205.152344 118.6875 205.210938 118.683594 205.269531 Z M 118.65625 205.453125 C 118.667969 205.394531 118.671875 205.339844 118.683594 205.28125 C 118.671875 205.339844 118.667969 205.394531 118.65625 205.453125 Z M 118.640625 205.644531 C 118.640625 205.582031 118.652344 205.523438 118.65625 205.464844 C 118.65625 205.523438 118.644531 205.582031 118.640625 205.644531 Z M 146.308594 202.152344 L 146.203125 201.46875 L 124.402344 202.714844 L 124.851562 205.550781 L 124.167969 201.242188 L 128.054688 199.257812 L 130.039062 195.371094 L 134.347656 196.054688 L 138.234375 194.074219 L 141.316406 197.160156 L 145.625 197.84375 Z M 256.34375 205.464844 C 256.355469 205.523438 256.355469 205.582031 256.363281 205.644531 C 256.355469 205.582031 256.351562 205.523438 256.34375 205.464844 Z M 256.300781 205.097656 C 256.3125 205.214844 256.328125 205.335938 256.34375 205.453125 C 256.332031 205.335938 256.316406 205.214844 256.300781 205.097656 Z M 256.28125 204.910156 C 256.285156 204.972656 256.292969 205.027344 256.300781 205.089844 C 256.292969 205.027344 256.285156 204.972656 256.28125 204.910156 Z M 256.253906 204.730469 C 256.261719 204.785156 256.269531 204.847656 256.28125 204.90625 C 256.269531 204.847656 256.261719 204.785156 256.253906 204.730469 Z M 256.222656 204.546875 C 256.230469 204.601562 256.242188 204.664062 256.253906 204.722656 C 256.242188 204.664062 256.234375 204.601562 256.222656 204.546875 Z M 256.191406 204.363281 C 256.199219 204.421875 256.214844 204.480469 256.222656 204.539062 C 256.210938 204.480469 256.199219 204.421875 256.191406 204.363281 Z M 256.160156 204.179688 C 256.175781 204.242188 256.183594 204.296875 256.191406 204.355469 C 256.183594 204.296875 256.175781 204.242188 256.160156 204.179688 Z M 256.128906 203.996094 C 256.140625 204.050781 256.15625 204.113281 256.160156 204.175781 Z M 256.09375 203.824219 C 256.109375 203.875 256.117188 203.9375 256.128906 203.996094 C 256.117188 203.9375 256.109375 203.875 256.09375 203.824219 Z M 256.058594 203.636719 C 256.070312 203.695312 256.082031 203.75 256.09375 203.808594 C 256.082031 203.753906 256.070312 203.695312 256.058594 203.636719 Z M 256.015625 203.453125 C 256.027344 203.511719 256.042969 203.566406 256.050781 203.625 C 256.042969 203.566406 256.027344 203.511719 256.015625 203.453125 Z M 255.972656 203.273438 C 255.984375 203.332031 256 203.394531 256.015625 203.449219 C 256 203.394531 255.988281 203.332031 255.972656 203.273438 Z M 225.609375 205.234375 L 225.816406 205.636719 L 301.902344 205.652344 L 255.914062 203.015625 C 255.929688 203.097656 255.957031 203.183594 255.972656 203.265625 C 255.25 200.203125 253.691406 197.296875 251.296875 194.90625 C 246.992188 190.59375 240.996094 188.992188 235.433594 190.097656 L 229.28125 183.945312 L 229.660156 184.046875 C 233.265625 178.644531 235.863281 172.515625 237.179688 165.921875 L 230.640625 162.148438 L 230.640625 149.789062 L 237.179688 146.011719 C 235.867188 139.417969 233.269531 133.285156 229.664062 127.882812 L 229.289062 127.984375 L 235.441406 121.835938 C 241 122.9375 246.992188 121.332031 251.308594 117.023438 C 255.5625 112.765625 257.175781 106.867188 256.148438 101.363281 L 243.6875 113.824219 L 232.613281 110.859375 L 229.648438 99.785156 L 242.109375 87.324219 C 236.605469 86.300781 230.707031 87.914062 226.453125 92.167969 C 222.140625 96.480469 220.535156 102.476562 221.640625 108.035156 L 215.488281 114.1875 L 215.589844 113.8125 C 210.191406 110.207031 204.054688 107.609375 197.460938 106.296875 L 193.6875 112.835938 L 181.324219 112.835938 L 177.550781 106.296875 C 170.960938 107.609375 164.828125 110.207031 159.425781 113.8125 L 159.527344 114.191406 L 153.375 108.039062 C 154.480469 102.476562 152.875 96.484375 148.566406 92.175781 C 144.308594 87.914062 138.410156 86.300781 132.90625 87.328125 L 134.480469 88.898438 L 145.367188 99.785156 L 142.402344 110.859375 L 131.328125 113.824219 L 118.867188 101.363281 C 117.839844 106.867188 119.449219 112.769531 123.71875 117.023438 C 128.027344 121.335938 134.015625 122.9375 139.578125 121.835938 L 145.730469 127.984375 L 145.355469 127.882812 C 141.75 133.285156 139.152344 139.421875 137.839844 146.011719 L 144.375 149.789062 L 144.375 162.148438 L 137.835938 165.925781 C 139.152344 172.515625 141.746094 178.648438 145.351562 184.050781 L 145.734375 183.949219 L 139.582031 190.097656 C 134.019531 188.992188 128.027344 190.597656 123.71875 194.90625 C 121.375 197.253906 119.828125 200.09375 119.089844 203.089844 C 119.09375 203.066406 119.097656 203.042969 119.109375 203.019531 L 73.113281 205.652344 L 149.203125 205.640625 L 149.40625 205.238281 L 149.195312 205.644531 L 153.632812 205.644531 C 153.578125 205.058594 153.492188 204.472656 153.378906 203.894531 L 159.527344 197.746094 L 159.425781 198.125 C 164.828125 201.730469 170.960938 204.328125 177.550781 205.640625 L 181.324219 199.101562 L 193.6875 199.101562 L 197.460938 205.640625 C 204.058594 204.324219 210.191406 201.730469 215.589844 198.125 L 215.488281 197.746094 L 221.632812 203.894531 C 221.523438 204.472656 221.4375 205.054688 221.382812 205.640625 L 225.820312 205.640625 L 225.613281 205.234375 Z M 250.601562 202.714844 L 228.804688 201.464844 L 229.378906 197.839844 L 233.683594 197.160156 L 236.773438 194.070312 L 240.65625 196.054688 L 244.964844 195.371094 L 246.945312 199.257812 L 250.835938 201.238281 L 250.597656 202.714844 Z M 231.898438 120.730469 C 232.519531 120.996094 233.144531 121.226562 233.78125 121.417969 L 226.464844 128.738281 L 224.390625 130.808594 L 227.21875 130.054688 L 229.019531 129.570312 C 232.085938 134.382812 234.292969 139.695312 235.527344 145.265625 L 229.175781 148.9375 L 229.175781 162.988281 L 235.527344 166.652344 C 234.292969 172.226562 232.082031 177.539062 229.015625 182.355469 L 224.386719 181.109375 L 226.453125 183.183594 L 233.78125 190.503906 C 233.136719 190.691406 232.511719 190.925781 231.894531 191.191406 L 222.9375 182.238281 L 220.511719 179.808594 L 220.625 179.695312 L 221.503906 178.824219 L 228.339844 180.65625 C 230.84375 176.53125 232.703125 172.058594 233.855469 167.375 L 227.710938 163.828125 L 227.710938 148.085938 L 233.855469 144.539062 C 232.707031 139.859375 230.847656 135.378906 228.347656 131.257812 L 221.503906 133.09375 L 220.515625 132.105469 L 221.550781 131.066406 L 231.898438 120.71875 Z M 231.898438 120.730469 " fill-opacity="1" fill-rule="evenodd"/></g><path fill="#737373" d="M 177.199219 136.21875 L 162.539062 150.875 L 172.4375 160.777344 L 173.144531 160.066406 C 173.113281 157.730469 174.191406 155.191406 177.851562 151.53125 C 181.511719 147.871094 184.054688 146.796875 186.386719 146.824219 L 187.09375 146.113281 L 177.195312 136.21875 Z M 173.53125 147.199219 C 174.449219 146.277344 175.945312 146.277344 176.867188 147.199219 C 177.78125 148.121094 177.78125 149.617188 176.867188 150.539062 C 175.941406 151.457031 174.445312 151.457031 173.53125 150.539062 C 172.605469 149.617188 172.605469 148.121094 173.53125 147.199219 Z M 173.53125 147.199219 " fill-opacity="1" fill-rule="evenodd"/><path fill="#737373" d="M 161.667969 150 L 176.324219 135.339844 L 175.53125 134.546875 L 160.875 149.207031 Z M 161.667969 150 " fill-opacity="1" fill-rule="evenodd"/><path fill="#737373" d="M 159.992188 148.328125 L 174.660156 133.667969 L 173.472656 132.488281 L 158.816406 147.148438 Z M 159.992188 148.328125 " fill-opacity="1" fill-rule="evenodd"/><path fill="#737373" d="M 178.351562 152.03125 C 177.792969 152.589844 177.324219 153.101562 176.90625 153.585938 L 183.40625 160.378906 L 186.777344 157.152344 L 179.910156 150.582031 C 179.421875 151 178.90625 151.476562 178.351562 152.03125 Z M 178.351562 152.03125 " fill-opacity="1" fill-rule="evenodd"/><path fill="#737373" d="M 195.082031 150.582031 L 176.222656 168.625 C 177.054688 168.988281 177.824219 169.492188 178.5 170.167969 C 179.171875 170.84375 179.683594 171.613281 180.046875 172.445312 L 198.089844 153.585938 C 197.671875 153.097656 197.195312 152.589844 196.636719 152.03125 C 196.082031 151.476562 195.570312 151 195.085938 150.582031 Z M 195.082031 150.582031 " fill-opacity="1" fill-rule="evenodd"/><path fill="#737373" d="M 191.59375 161.765625 L 188.164062 165.351562 L 194.949219 172.441406 C 195.304688 171.609375 195.816406 170.839844 196.488281 170.164062 C 197.160156 169.488281 197.941406 168.984375 198.761719 168.621094 Z M 191.59375 161.765625 " fill-opacity="1" fill-rule="evenodd"/><path fill="#737373" d="M 197.132812 151.53125 C 200.789062 155.191406 201.867188 157.730469 201.839844 160.066406 L 202.546875 160.777344 L 212.445312 150.875 L 197.785156 136.21875 L 187.886719 146.113281 L 188.597656 146.824219 C 190.929688 146.796875 193.472656 147.871094 197.132812 151.53125 Z M 201.464844 150.539062 C 200.539062 151.457031 199.046875 151.457031 198.128906 150.539062 C 197.203125 149.617188 197.203125 148.121094 198.128906 147.199219 C 199.046875 146.277344 200.539062 146.277344 201.464844 147.199219 C 202.378906 148.121094 202.378906 149.617188 201.464844 150.539062 Z M 201.464844 150.539062 " fill-opacity="1" fill-rule="evenodd"/><path fill="#737373" d="M 198.664062 135.339844 L 213.324219 150 L 214.113281 149.207031 L 199.457031 134.546875 Z M 198.664062 135.339844 " fill-opacity="1" fill-rule="evenodd"/><path fill="#737373" d="M 200.335938 133.667969 L 214.996094 148.328125 L 216.179688 147.148438 L 201.511719 132.488281 Z M 200.335938 133.667969 " fill-opacity="1" fill-rule="evenodd"/><path fill="#737373" d="M 205.527344 169.921875 C 202.929688 168.101562 199.320312 168.347656 196.996094 170.671875 C 195.6875 171.976562 195.039062 173.6875 195.046875 175.398438 C 195.039062 176.757812 195.4375 178.117188 196.253906 179.277344 C 195.96875 179.742188 196.019531 180.351562 196.417969 180.746094 C 196.816406 181.152344 197.429688 181.203125 197.890625 180.917969 C 200.492188 182.742188 204.097656 182.503906 206.425781 180.171875 C 207.738281 178.867188 208.382812 177.15625 208.375 175.441406 C 208.378906 174.089844 207.980469 172.730469 207.171875 171.566406 C 207.457031 171.109375 207.398438 170.5 207.003906 170.101562 C 206.605469 169.695312 205.992188 169.644531 205.53125 169.925781 Z M 198.453125 172.132812 C 200.257812 170.332031 203.167969 170.332031 204.964844 172.132812 C 205.660156 172.824219 206.085938 173.6875 206.246094 174.585938 L 206.230469 174.585938 C 206.273438 174.808594 206.292969 175.03125 206.308594 175.253906 C 206.308594 175.421875 206.308594 175.582031 206.292969 175.746094 L 206.300781 175.746094 C 206.234375 176.824219 205.789062 177.886719 204.964844 178.710938 C 203.167969 180.507812 200.25 180.507812 198.453125 178.710938 C 197.761719 178.019531 197.332031 177.15625 197.183594 176.261719 L 197.199219 176.261719 C 197.144531 176.03125 197.125 175.8125 197.113281 175.582031 C 197.113281 175.421875 197.113281 175.253906 197.128906 175.09375 L 197.121094 175.09375 C 197.1875 174.015625 197.632812 172.957031 198.457031 172.128906 Z M 198.453125 172.132812 " fill-opacity="1" fill-rule="evenodd"/><path fill="#737373" d="M 178 170.671875 C 175.667969 168.347656 172.058594 168.101562 169.457031 169.921875 C 168.996094 169.640625 168.390625 169.695312 167.996094 170.097656 C 167.589844 170.496094 167.539062 171.105469 167.820312 171.5625 C 167.003906 172.726562 166.605469 174.085938 166.613281 175.4375 C 166.613281 177.152344 167.257812 178.867188 168.5625 180.171875 C 170.886719 182.5 174.496094 182.738281 177.105469 180.914062 C 177.558594 181.203125 178.175781 181.148438 178.570312 180.742188 C 178.96875 180.347656 179.023438 179.738281 178.742188 179.273438 C 179.550781 178.117188 179.949219 176.757812 179.941406 175.394531 C 179.949219 173.683594 179.308594 171.976562 178 170.667969 Z M 170.023438 172.132812 C 171.820312 170.332031 174.734375 170.332031 176.535156 172.132812 C 177.355469 172.957031 177.808594 174.015625 177.871094 175.097656 L 177.863281 175.097656 C 177.878906 175.257812 177.886719 175.421875 177.878906 175.585938 C 177.871094 175.8125 177.84375 176.03125 177.796875 176.261719 L 177.804688 176.261719 C 177.652344 177.160156 177.226562 178.023438 176.53125 178.714844 C 174.734375 180.511719 171.816406 180.511719 170.019531 178.710938 C 169.195312 177.890625 168.746094 176.828125 168.683594 175.75 L 168.691406 175.75 C 168.675781 175.585938 168.675781 175.421875 168.675781 175.257812 C 168.691406 175.035156 168.71875 174.8125 168.753906 174.589844 L 168.746094 174.585938 C 168.90625 173.691406 169.324219 172.828125 170.019531 172.132812 Z M 170.023438 172.132812 " fill-opacity="1" fill-rule="evenodd"/></svg>